# AST/ASF file generated using VICON BodyLanguage
# -----------------------------------------------
:version 1.10
:name VICON
:units
  mass 1.0
  length 0.45
  angle deg
:documentation
   .ast/.asf automatically generated from VICON data using
   VICON BodyBuilder and BodyLanguage model FoxedUp or BRILLIANT.MOD
:root
   order TX TY TZ RX RY RZ
   axis XYZ
   position 0 0 0  
   orientation 0 0 0 
:bonedata
  begin
     id 1 
     name lhipjoint
     direction 0.643824 -0.71708 0.266994 
     length 2.52133 
     axis 0 0 0  XYZ
  end
  begin
     id 2 
     name lfemur
     direction 0.34202 -0.939693 0  
     length 7.51824  
     axis 0 0 20  XYZ
    dof rx ry rz
    limits (-160.0 20.0)
           (-70.0 70.0)
           (-60.0 70.0)
  end
  begin
     id 3 
     name ltibia
     direction 0.34202 -0.939693 0   
     length 7.3685   
     axis 0 0 20   XYZ
    dof rx
    limits (-10.0 170.0)
  end
  begin
     id 4 
     name lfoot
     direction 0.105419 -0.289636 0.951314   
     length 2.20972   
     axis -90 7.62852e-016 20   XYZ
    dof rx rz
    limits (-45.0 90.0)
           (-70.0 20.0)
  end
  begin
     id 5 
     name ltoes
     direction 1.53549e-011 -4.21833e-011 1   
     length 1.10139   
     axis -90 7.62852e-016 20   XYZ
    dof rx
    limits (-90.0 20.0)
  end
  begin
     id 6 
     name rhipjoint
     direction -0.608823 -0.743445 0.276811   
     length 2.43192  
     axis 0 0 0  XYZ 
  end
  begin
     id 7 
     name rfemur
     direction -0.34202 -0.939693 0   
     length 7.69715   
     axis 0 0 -20   XYZ
    dof rx ry rz
    limits (-160.0 20.0)
           (-70.0 70.0)
           (-70.0 60.0)
  end
  begin
     id 8 
     name rtibia
     direction -0.34202 -0.939693 0   
     length 7.44924   
     axis 0 0 -20   XYZ
    dof rx
    limits (-10.0 170.0)
 end
 begin
     id 9 
     name rfoot
     direction -0.103614 -0.284677 0.953007   
     length 2.22623  
     axis -90 -7.62852e-016 -20   XYZ
    dof rx rz
    limits (-45.0 90.0)
           (-20.0 70.0)
  end
  begin
     id 10 
     name rtoes
     direction -1.53537e-011 -4.22026e-011 1   
     length 1.11   
     axis -90 -7.62852e-016 -20   XYZ
    dof rx
    limits (-90.0 20.0)
  end
  begin
     id 11 
     name lowerback
     direction -0.0101212 0.99662 -0.0815298   
     length 2.08277   
     axis 0 0 0   XYZ
    dof rx ry rz
    limits (-20.0 45.0)
           (-30.0 30.0)
           (-30.0 30.0)
  end
  begin
     id 12 
     name upperback
     direction 0.024314 0.999591 -0.0150645   
     length 2.08524   
     axis 0 0 0   XYZ
    dof rx ry rz
    limits (-20.0 45.0)
           (-30.0 30.0)
           (-30.0 30.0)
  end
  begin
     id 13 
     name thorax
     direction 0.0285959 0.999323 0.0231357   
     length 2.09645   
     axis 0 0 0   XYZ
    dof rx ry rz
    limits (-20.0 45.0)
           (-30.0 30.0)
           (-30.0 30.0)
  end
  begin
     id 14 
     name lowerneck
     direction -0.065512 0.979301 0.191515   
     length 1.63798   
     axis 0 0 0   XYZ
    dof rx ry rz
    limits (-20.0 45.0)
           (-30.0 30.0)
           (-30.0 30.0)
  end
  begin
     id 15 
     name upperneck
     direction 0.0498479 0.98191 -0.182667   
     length 1.68731   
     axis 0 0 0   XYZ
    dof rx ry rz
    limits (-20.0 45.0)
           (-30.0 30.0)
           (-30.0 30.0)
  end
  begin
     id 16
     name head
     direction 0.0230358 0.996257 -0.0833175  
     length 1.69785  
     axis 0 0 0   XYZ
    dof rx ry rz
    limits (-20.0 45.0)
           (-30.0 30.0)
           (-30.0 30.0)
  end
  begin
     id 17 
     name lclavicle
     direction 0.967963 0.201165 -0.150269  
     length 3.63976  
     axis 0 0 0   XYZ
    dof ry rz
    limits (-20.0 10.0)
           (0.0 20.0)
  end
  begin
     id 18 
     name lhumerus
     direction 1 -4.48954e-011 -2.92837e-028   
     length 5.32462   
     axis 180 -30 -90   XYZ
    dof rx ry rz
    limits (-60.0 90.0)
           (-90.0 90.0)
           (-90.0 90.0)
  end
  begin
     id 19
     name lradius
     direction 1 -4.48958e-011 -6.39511e-027   
     length 3.48402   
     axis 180 -30 -90   XYZ
    dof rx
    limits (-10.0 170.0)
  end
  begin
     id 20
     name lwrist
     direction 1 -4.48975e-011 -1.1413e-026   
     length 1.74201   
     axis 6.88575e-015 90 90   XYZ
    dof ry
    limits (-180.0 0.0)
 end
  begin
     id 21 
     name lhand
     direction 1 -4.48899e-011 -2.28192e-026   
     length 0.572476   
     axis 1.45643e-014 90 90   XYZ
    dof rx rz
    limits (-90.0 90.0)
           (-45.0 45.0)
  end
  begin
     id 22 
     name lfingers
     direction 1 -4.49155e-011 -4.5684e-026   
     length 0.461545   
     axis 2.91283e-014 90 90   XYZ
    dof rx
    limits (0.0 90.0)
  end
  begin
     id 23
     name lthumb
     direction 0.707107 -6.34943e-011 0.707107   
     length 0.662688   
     axis -90 45 -2.25915e-014   XYZ
    dof rx rz
    limits (-45.0 45.0)
           (-45.0 45.0)
  end
  begin
     id 24 
     name rclavicle
     direction -0.964103 0.264019 -0.0282629   
     length 3.54491  
     axis 0 0 0   XYZ 
    dof ry rz
    limits (-10.0 20.0)
           (-20.0 0.0)
  end
  begin
     id 25 
     name rhumerus
     direction -1 -4.48964e-011 -2.45032e-027  
     length 5.33589   
     axis 180 30 90   XYZ
    dof rx ry rz
    limits (-90.0 60.0)
           (-90.0 90.0)
           (-90.0 90.0)
  end
  begin
     id 26 
     name rradius
     direction -1 -4.48987e-011 -1.55093e-027   
     length 3.64134   
     axis 180 30 90   XYZ
    dof rx
    limits (-10.0 170.0)
  end
  begin
     id 27 
     name rwrist
     direction -1 -4.4897e-011 -1.14128e-026   
     length 1.82067   
     axis 6.88575e-015 -90 -90   XYZ
    dof ry
    limits (-180.0 0.0)
  end
  begin
     id 28
     name rhand
     direction -1 -4.49021e-011 -2.28301e-026   
     length 0.734811   
     axis 1.45643e-014 -90 -90   XYZ
    dof rx rz
    limits (-90.0 90.0)
           (-45.0 45.0)
  end
  begin
     id 29
     name rfingers
     direction -1 -4.48862e-011 -4.56319e-026   
     length 0.592424   
     axis 2.91283e-014 -90 -90   XYZ
    dof rx
    limits (0.0 90.0)
  end
  begin
     id 30
     name rthumb
     direction -0.707107 -6.34978e-011 0.707107   
     length 0.850605   
     axis -90 -45 2.25915e-014   XYZ
    dof rx rz
    limits (-45.0 45.0)
           (-45.0 45.0)
  end
:hierarchy
  begin
    root lhipjoint rhipjoint lowerback
    lhipjoint lfemur
    lfemur ltibia
    ltibia lfoot
    lfoot ltoes
    rhipjoint rfemur
    rfemur rtibia
    rtibia rfoot
    rfoot rtoes
    lowerback upperback
    upperback thorax
    thorax lowerneck lclavicle rclavicle
    lowerneck upperneck
    upperneck head
    lclavicle lhumerus
    lhumerus lradius
    lradius lwrist
    lwrist lhand lthumb
    lhand lfingers
    rclavicle rhumerus
    rhumerus rradius
    rradius rwrist
    rwrist rhand rthumb
    rhand rfingers
  end

#!OML:ASF F:\VICON\USERDATA\INSTALL\rory3\rory3.ASF
:FULLY-SPECIFIED
:DEGREES
87
root 1.3694 17.6761 -0.713937 26.1518 -31.2958 6.10032
lowerback 24.4767 -2.32407 -0.590181
upperback 7.77181 -2.88363 5.8849
thorax -4.64679 -1.54583 7.61203
lowerneck -23.2921 -6.78773 -11.6069
upperneck 26.6387 -7.45339 6.72638
head 13.6344 -3.5204 3.20771
rclavicle -6.91771e-014 -1.74931e-014
rhumerus 16.4918 18.6637 -66.5892
rradius 39.3305
rwrist 30.928
rhand -37.7375 -0.338518
rfingers 7.12502
rthumb -10.7861 -30.0416
lclavicle -6.91771e-014 -1.74931e-014
lhumerus 12.4416 -27.44 78.0429
lradius 36.2571
lwrist -2.47013
lhand -15.4 25.3175
lfingers 7.12502
lthumb 10.779 55.0209
rfemur -55.8032 7.5248 0.747088
rtibia 29.0557
rfoot -0.285291 -0.00348646
rtoes 6.60012
lfemur -40.126 19.8547 -31.5788
ltibia 27.5126
lfoot -11.0099 15.1075
ltoes -19.3145
88
root 1.35593 17.6569 -0.729095 26.5673 -31.46 6.16325
lowerback 25.1308 -2.55947 -0.628629
upperback 7.88734 -3.16718 6.11693
thorax -4.78406 -1.68825 8.01972
lowerneck -23.5264 -6.61427 -12.1943
upperneck 26.6659 -6.97796 6.82469
head 13.6724 -3.3597 3.43593
rclavicle 1.11319e-014 -2.3059e-014
rhumerus 18.1619 19.6745 -65.8142
rradius 38.8344
rwrist 31.3589
rhand -38.1015 -0.369603
rfingers 7.12502
rthumb -11.1371 -30.0541
lclavicle 1.11319e-014 -2.3059e-014
lhumerus 13.9867 -26.5253 77.8186
lradius 35.0696
lwrist -3.01437
lhand -15.3017 25.1319
lfingers 7.12502
lthumb 10.8738 54.8304
rfemur -56.4341 7.24779 0.806018
rtibia 29.1603
rfoot -0.0479697 0.231829
rtoes 7.63151
lfemur -40.9445 20.1848 -31.9607
ltibia 27.8447
lfoot -11.0761 14.8557
ltoes -19.766
89
root 1.33882 17.6462 -0.742778 27.0566 -31.6435 6.01637
lowerback 25.8195 -2.42297 -0.363277
upperback 8.06353 -2.91337 6.26075
thorax -4.96695 -1.56746 8.00102
lowerneck -23.7445 -6.73768 -12.0957
upperneck 26.4956 -7.13194 6.77249
head 13.6563 -3.41389 3.36131
rclavicle -3.02153e-014 -4.33351e-014
rhumerus 19.2891 19.3881 -65.1635
rradius 38.4862
rwrist 31.8421
rhand -38.3209 -0.574358
rfingers 7.12502
rthumb -11.3488 -30.2473
lclavicle -3.02153e-014 -4.33351e-014
lhumerus 16.0358 -26.8934 77.3084
lradius 34.0306
lwrist -3.27619
lhand -14.9629 25.1737
lfingers 7.12502
lthumb 11.2006 54.8547
rfemur -57.0422 7.0184 1.13141
rtibia 29.2863
rfoot 0.21542 0.550485
rtoes 7.95159
lfemur -41.7059 20.5017 -32.1075
ltibia 28.1748
lfoot -11.0428 14.6782
ltoes -20.0655
90
root 1.32443 17.6399 -0.750336 27.521 -31.8028 5.95881
lowerback 26.3247 -2.41373 0.161232
upperback 8.27404 -2.77767 6.16835
thorax -5.03048 -1.50258 7.57609
lowerneck -23.8623 -6.84865 -11.8285
upperneck 26.1712 -7.3966 6.90324
head 13.5674 -3.47447 3.30951
rclavicle -6.20208e-014 -4.01545e-014
rhumerus 20.3093 18.9084 -64.9374
rradius 38.1825
rwrist 32.4824
rhand -38.6152 -0.868546
rfingers 7.12502
rthumb -11.6326 -30.5256
lclavicle -6.20208e-014 -4.01545e-014
lhumerus 18.0016 -27.1344 76.602
lradius 33.1288
lwrist -3.77621
lhand -14.492 25.2213
lfingers 7.12502
lthumb 11.6546 54.8772
rfemur -57.6258 6.63393 1.45724
rtibia 29.445
rfoot 0.501535 0.993523
rtoes 7.8322
lfemur -42.4428 20.6942 -32.3247
ltibia 28.5574
lfoot -11.1145 14.4973
ltoes -19.7526
91
root 1.31441 17.6237 -0.755368 28.0054 -31.8308 6.07993
lowerback 26.7902 -2.47057 0.766738
upperback 8.37193 -2.69667 6.00442
thorax -5.19675 -1.45556 7.04086
lowerneck -23.9558 -6.94108 -11.3953
upperneck 25.9302 -7.69277 6.98536
head 13.5012 -3.54114 3.20656
rclavicle -2.94201e-014 6.08281e-014
rhumerus 21.1262 18.3502 -64.8539
rradius 37.9836
rwrist 33.2099
rhand -38.7746 -1.60088
rfingers 7.12502
rthumb -11.7863 -31.2492
lclavicle -2.94201e-014 6.08281e-014
lhumerus 19.8465 -27.2361 76.1024
lradius 32.1969
lwrist -4.41641
lhand -14.2409 25.2575
lfingers 7.12502
lthumb 11.8968 54.8995
rfemur -58.3253 6.23785 1.46848
rtibia 29.6627
rfoot 0.644959 1.24039
rtoes 8.12869
lfemur -43.2548 20.5338 -32.6082
ltibia 28.9237
lfoot -11.1873 14.4876
ltoes -19.4847
92
root 1.30181 17.6013 -0.765228 28.5091 -31.8688 6.26957
lowerback 27.3475 -2.64515 0.899489
upperback 8.42351 -2.85359 6.09605
thorax -5.38964 -1.52867 7.15408
lowerneck -24.2792 -6.86762 -11.317
upperneck 25.7925 -7.52737 6.86492
head 13.4803 -3.4698 3.17073
rclavicle -8.11041e-014 3.57812e-015
rhumerus 22.3662 18.6478 -64.3331
rradius 37.8482
rwrist 33.7258
rhand -38.7723 -2.37685
rfingers 7.12502
rthumb -11.7841 -32.0253
lclavicle -8.11041e-014 3.57812e-015
lhumerus 21.4405 -26.1399 76.2338
lradius 30.9921
lwrist -5.48364
lhand -14.1827 25.2882
lfingers 7.12502
lthumb 11.953 54.927
rfemur -59.1513 5.86129 1.38002
rtibia 29.9778
rfoot 0.728544 1.40291
rtoes 8.79816
lfemur -44.1513 20.4016 -33.0091
ltibia 29.258
lfoot -11.22 14.4951
ltoes -19.5749
93
root 1.28521 17.5811 -0.780799 29.078 -31.8754 6.46345
lowerback 28.0329 -2.90843 0.25863
upperback 8.32189 -3.26214 6.77122
thorax -5.69605 -1.72787 8.49491
lowerneck -24.4409 -6.63474 -12.3051
upperneck 25.6175 -6.69903 6.6345
head 13.3834 -3.23892 3.39863
rclavicle -5.80451e-014 -6.44062e-014
rhumerus 24.0332 20.4691 -62.6902
rradius 38.0288
rwrist 33.6523
rhand -38.745 -2.98558
rfingers 7.12502
rthumb -11.7578 -32.6356
lclavicle -5.80451e-014 -6.44062e-014
lhumerus 22.2585 -23.5707 77.4403
lradius 29.9145
lwrist -6.88095
lhand -13.9293 25.4191
lfingers 7.12502
lthumb 12.1973 55.0434
rfemur -60.0839 5.56513 1.21448
rtibia 30.3858
rfoot 0.713335 1.42321
rtoes 9.45921
lfemur -45.1437 20.2876 -33.432
ltibia 29.5588
lfoot -11.1555 14.4318
ltoes -19.6748
94
root 1.27111 17.5623 -0.789936 29.6463 -31.7751 6.68322
lowerback 28.0481 -3.00074 0.899154
upperback 8.56195 -3.23669 6.59988
thorax -5.48634 -1.72169 7.8988
lowerneck -24.5172 -6.84095 -11.9522
upperneck 25.108 -7.1584 6.86283
head 13.2339 -3.36128 3.33093
rclavicle -1.51076e-014 8.74653e-015
rhumerus 24.8731 19.5099 -62.5987
rradius 38.0994
rwrist 34.228
rhand -38.8932 -3.09651
rfingers 7.12502
rthumb -11.9006 -32.7383
lclavicle -1.51076e-014 8.74653e-015
lhumerus 24.2745 -24.2338 76.3827
lradius 29.7008
lwrist -6.51328
lhand -13.2891 25.9551
lfingers 7.12502
lthumb 12.8145 55.5418
rfemur -60.9837 5.27534 0.977132
rtibia 30.8226
rfoot 0.537399 1.33396
rtoes 9.75323
lfemur -46.0914 20.0123 -33.8003
ltibia 29.8184
lfoot -11.132 14.3638
ltoes -19.5532
95
root 1.25937 17.541 -0.793347 30.0549 -31.7885 7.06149
lowerback 28.4331 -2.8888 1.66498
upperback 8.62873 -2.90649 6.16366
thorax -5.70464 -1.54695 6.87298
lowerneck -24.577 -7.15872 -10.9171
upperneck 24.8036 -8.03336 7.01403
head 13.1738 -3.61252 3.04264
rclavicle 6.83819e-014 -1.25632e-013
rhumerus 25.0572 17.8564 -62.8511
rradius 38.2424
rwrist 34.6611
rhand -38.9367 -2.94257
rfingers 7.12502
rthumb -11.9426 -32.5819
lclavicle 6.83819e-014 -1.25632e-013
lhumerus 26.2223 -25.6587 75.2877
lradius 29.6704
lwrist -6.02817
lhand -12.7005 26.3496
lfingers 7.12502
lthumb 13.3819 55.8998
rfemur -61.8263 4.90315 0.672928
rtibia 31.25
rfoot 0.448259 1.38067
rtoes 9.74777
lfemur -46.8348 19.6328 -34.2496
ltibia 30.0036
lfoot -11.1671 14.4703
ltoes -19.4088
96
root 1.24584 17.5178 -0.797089 30.4911 -31.8789 7.36943
lowerback 29.0621 -3.09081 1.31776
upperback 8.63104 -3.18353 6.58742
thorax -5.91993 -1.68237 7.7036
lowerneck -24.9747 -7.06315 -11.6817
upperneck 24.6548 -7.5328 7.00966
head 13.1742 -3.46073 3.25622
rclavicle -1.35174e-014 2.66371e-014
rhumerus 26.5464 19.0339 -61.3177
rradius 38.7671
rwrist 34.2055
rhand -38.967 -3.18945
rfingers 7.12502
rthumb -11.9719 -32.8271
lclavicle -1.35174e-014 2.66371e-014
lhumerus 26.9094 -23.165 76.7892
lradius 29.1633
lwrist -7.66571
lhand -12.2645 26.5366
lfingers 7.12502
lthumb 13.8021 56.0588
rfemur -62.6714 4.64275 0.365142
rtibia 31.6316
rfoot 0.398167 1.42346
rtoes 10.0165
lfemur -47.5987 19.3765 -34.6972
ltibia 30.1749
lfoot -11.0593 14.6063
ltoes -19.7446
97
root 1.23019 17.4984 -0.79982 31.0318 -31.9589 7.44747
lowerback 29.5305 -3.03983 1.64315
upperback 8.67332 -3.00334 6.62476
thorax -6.12878 -1.59207 7.53308
lowerneck -24.9366 -7.20346 -11.5067
upperneck 24.1912 -7.7894 7.06073
head 13.0001 -3.54473 3.18973
rclavicle -6.36111e-015 -1.82882e-014
rhumerus 27.0844 18.6358 -60.7349
rradius 39.3743
rwrist 34.2362
rhand -39.3709 -3.88512
rfingers 7.12502
rthumb -12.3612 -33.4997
lclavicle -6.36111e-015 -1.82882e-014
lhumerus 28.1457 -22.6105 77.2912
lradius 28.9201
lwrist -8.87699
lhand -11.8509 26.8913
lfingers 7.12502
lthumb 14.2007 56.3859
rfemur -63.4718 4.5162 0.232389
rtibia 31.9523
rfoot 0.297929 1.49098
rtoes 9.85175
lfemur -48.3792 19.2834 -34.9781
ltibia 30.3673
lfoot -10.9991 14.618
ltoes -20.0294
98
root 1.2123 17.483 -0.803262 31.6306 -32.0826 7.35719
lowerback 29.9531 -3.0296 1.75269
upperback 8.84207 -2.92774 6.92098
thorax -6.12875 -1.56656 7.81197
lowerneck -25.1415 -7.31042 -11.9783
upperneck 23.683 -7.74523 7.23343
head 12.8613 -3.53789 3.33145
rclavicle 2.22639e-014 1.94809e-014
rhumerus 28.1978 18.6795 -59.7906
rradius 39.9845
rwrist 34.1889
rhand -39.7029 -4.5263
rfingers 7.12502
rthumb -12.6814 -34.1213
lclavicle 2.22639e-014 1.94809e-014
lhumerus 29.3645 -21.6548 77.8788
lradius 28.8475
lwrist -9.31309
lhand -12.0142 27.2134
lfingers 7.12502
lthumb 14.0433 56.719
rfemur -64.239 4.48911 0.250908
rtibia 32.2176
rfoot 0.236121 1.53148
rtoes 10.0187
lfemur -49.1223 19.3793 -35.1856
ltibia 30.5521
lfoot -11.0675 14.5252
ltoes -19.9832
99
root 1.19009 17.4697 -0.808963 32.1271 -32.3469 7.38112
lowerback 30.7409 -2.94242 1.69608
upperback 8.69485 -2.7895 7.44101
thorax -6.23856 -1.54489 7.8761
lowerneck -25.3841 -7.40943 -12.4649
upperneck 23.3103 -7.69308 7.42898
head 12.7855 -3.52499 3.48746
rclavicle 3.18055e-014 -1.19668e-013
rhumerus 29.2264 18.6623 -58.9444
rradius 40.5243
rwrist 34.2678
rhand -40.017 -4.98591
rfingers 7.12502
rthumb -12.9841 -34.5619
lclavicle 3.18055e-014 -1.19668e-013
lhumerus 30.36 -20.9192 78.4309
lradius 29.0803
lwrist -9.31426
lhand -12.8815 27.595
lfingers 7.12502
lthumb 13.2074 57.1566
rfemur -64.989 4.57574 0.0505715
rtibia 32.4521
rfoot 0.223037 1.48461
rtoes 10.3337
lfemur -49.8099 19.5251 -35.51
ltibia 30.7058
lfoot -11.1296 14.4484
ltoes -19.8879
